<?xml version="1.0" encoding="utf-8"?>
<svg viewBox="-57.602 3.315 518 120" fill="none" xmlns="http://www.w3.org/2000/svg">
  <path d="M -52.214 38.957 C -52.214 33.351 -45.631 29.889 -40.459 32.773 L -20.94 43.653 C -16.264 46.26 -13.403 50.954 -13.403 56.021 L -13.403 68.534 C -13.403 73.601 -16.264 78.296 -20.94 80.901 L -40.459 91.781 C -45.631 94.665 -52.214 91.204 -52.214 85.598 L -52.214 38.957 Z" style="fill: rgb(44, 160, 92);"/>
  <path d="M 41.484 14.503 C 46.965 14.503 49.76 19.459 45.949 22.426 L 32.21 33.121 C 28.309 36.158 22.937 37.873 17.324 37.873 L -8.532 37.873 C -12.284 37.873 -15.966 37.106 -19.183 35.653 L -46.797 23.185 C -52.199 20.746 -49.9 14.503 -43.602 14.503 L 41.484 14.503 Z" fill="#624CF5" style=""/>
  <path d="M 37.966 109.64 C 43.262 109.64 45.961 104.596 42.28 101.577 L 29.007 90.691 C 25.239 87.601 20.049 85.856 14.628 85.856 L -10.349 85.856 C -13.975 85.856 -17.531 86.637 -20.639 88.116 L -47.314 100.805 C -52.532 103.287 -50.312 109.64 -44.227 109.64 L 37.966 109.64 Z" fill="#624CF5" style=""/>
  <rect x="-6.574" y="48.315" width="32.901" height="30" rx="15" style="fill: rgb(108, 250, 124);"/>
  <text style="fill: rgb(0, 0, 0); font-family: Arial, sans-serif; font-size: 70px; font-weight: 700; letter-spacing: 1.1px; word-spacing: 100px; white-space: pre;" x="73.349" y="87.557">EventVerse</text>
</svg>